<svg width="18" height="20" viewBox="0 0 18 20" fill="none" xmlns="http://www.w3.org/2000/svg">
<path d="M8.09997 20C7.97239 20 7.84627 19.9725 7.72999 19.9195C7.6137 19.8665 7.5099 19.7891 7.42548 19.6925C7.34106 19.5958 7.27794 19.4822 7.24031 19.359C7.20268 19.2359 7.1914 19.1061 7.20722 18.9782L7.98118 12.7273H0.900365C0.729198 12.7274 0.561558 12.6781 0.417112 12.5854C0.272666 12.4926 0.157405 12.3602 0.0848503 12.2036C0.0122957 12.047 -0.0145431 11.8727 0.00748244 11.7012C0.029508 11.5298 0.0994845 11.3682 0.209203 11.2355L9.20871 0.32643C9.33328 0.175725 9.5028 0.0698075 9.69192 0.0245183C9.88104 -0.020771 10.0796 -0.00299755 10.2579 0.0751803C10.4362 0.153358 10.5846 0.287739 10.681 0.458223C10.7774 0.628708 10.8165 0.826134 10.7926 1.02097L10.0214 7.27277H17.0995C17.2706 7.27266 17.4381 7.32182 17.5825 7.41447C17.727 7.50712 17.8422 7.63944 17.9149 7.79591C17.9875 7.95238 18.0145 8.12652 17.9926 8.29792C17.9708 8.46932 17.901 8.63089 17.7915 8.76367L8.79204 19.6727C8.70752 19.7752 8.6017 19.8577 8.4821 19.9142C8.3625 19.9708 8.23203 20.0001 8.09997 20ZM2.82266 10.9091H8.99993C9.12751 10.9092 9.25363 10.9366 9.36991 10.9896C9.4862 11.0426 9.59 11.12 9.67442 11.2167C9.75884 11.3133 9.82196 11.4269 9.85959 11.5501C9.89722 11.6732 9.9085 11.8031 9.89268 11.9309L9.37431 16.1273L15.1808 9.09095H8.99993C8.87234 9.09091 8.74623 9.06347 8.62994 9.01045C8.51365 8.95743 8.40985 8.88004 8.32543 8.78341C8.24101 8.68678 8.17789 8.57313 8.14026 8.44998C8.10263 8.32684 8.09135 8.19702 8.10717 8.06913L8.62555 3.87187L2.82266 10.9091Z" fill="#EF2543"/>
</svg>
