<svg width="20" height="20" viewBox="0 0 20 20" fill="none" xmlns="http://www.w3.org/2000/svg">
<path d="M16.6532 6.66664C15.7698 6.66664 14.9225 6.31545 14.2978 5.69033C13.6731 5.06521 13.3221 4.21737 13.3221 3.33332C13.3221 2.44927 13.6731 1.60143 14.2978 0.976307C14.9225 0.351188 15.7698 0 16.6532 0C17.5367 0 18.3839 0.351188 19.0086 0.976307C19.6333 1.60143 19.9843 2.44927 19.9843 3.33332C19.9843 4.21737 19.6333 5.06521 19.0086 5.69033C18.3839 6.31545 17.5367 6.66664 16.6532 6.66664ZM16.6532 1.66666C16.2115 1.66666 15.7879 1.84225 15.4755 2.15481C15.1632 2.46737 14.9877 2.89129 14.9877 3.33332C14.9877 3.77535 15.1632 4.19927 15.4755 4.51183C15.7879 4.82439 16.2115 4.99998 16.6532 4.99998C17.0949 4.99998 17.5186 4.82439 17.8309 4.51183C18.1433 4.19927 18.3188 3.77535 18.3188 3.33332C18.3188 2.89129 18.1433 2.46737 17.8309 2.15481C17.5186 1.84225 17.0949 1.66666 16.6532 1.66666ZM17.8624 19.9999H10.4816C10.1082 20.0032 9.7406 19.9079 9.41585 19.7235C9.0911 19.5391 8.82071 19.2723 8.63199 18.9499C8.44704 18.6392 8.34741 18.2852 8.34317 17.9236C8.33892 17.562 8.43023 17.2057 8.60784 16.8908L12.302 10.2583C12.4922 9.92957 12.7655 9.65667 13.0943 9.46695C13.4232 9.27723 13.7961 9.17736 14.1757 9.17736C14.5553 9.17736 14.9283 9.27723 15.2571 9.46695C15.586 9.65667 15.8592 9.92957 16.0495 10.2583L19.7345 16.8858C19.9124 17.2012 20.004 17.558 19.9999 17.9201C19.9958 18.2823 19.8962 18.637 19.7111 18.9483C19.5225 19.2707 19.2523 19.5376 18.9277 19.7222C18.6032 19.9069 18.2357 20.0026 17.8624 19.9999ZM14.1741 10.8333C14.0898 10.8313 14.0067 10.8522 13.9333 10.8937C13.86 10.9352 13.7993 10.9958 13.7577 11.0691L10.0635 17.7016C10.0278 17.7631 10.0094 17.8332 10.0103 17.9044C10.0112 17.9755 10.0313 18.0451 10.0685 18.1058C10.1112 18.1775 10.1723 18.2365 10.2456 18.2766C10.3188 18.3166 10.4015 18.3362 10.4849 18.3333H17.8657C17.9493 18.3357 18.0319 18.3158 18.1052 18.2755C18.1784 18.2352 18.2395 18.176 18.2821 18.1041C18.3187 18.0424 18.338 17.972 18.338 17.9003C18.338 17.8286 18.3187 17.7583 18.2821 17.6966L14.5913 11.07C14.5498 10.9963 14.4891 10.9353 14.4155 10.8936C14.342 10.8519 14.2585 10.831 14.1741 10.8333ZM6.65999 19.1666C6.65999 18.9456 6.57225 18.7336 6.41608 18.5773C6.2599 18.4211 6.04808 18.3333 5.82722 18.3333H2.78761C2.59286 18.3331 2.40148 18.2824 2.23225 18.1859C2.06303 18.0894 1.92177 17.9506 1.82233 17.783C1.7229 17.6155 1.66871 17.4249 1.66507 17.2301C1.66144 17.0352 1.70849 16.8428 1.80161 16.6716L7.34119 6.42164C7.43594 6.24298 7.57777 6.0937 7.75129 5.98998C7.92482 5.88627 8.12341 5.83208 8.32553 5.83331C8.52784 5.83165 8.72672 5.88565 8.90046 5.9894C9.07419 6.09315 9.2161 6.24267 9.31069 6.42164L10.3325 8.3108C10.3846 8.4071 10.4551 8.4922 10.54 8.56124C10.6249 8.63028 10.7226 8.6819 10.8274 8.71316C10.9323 8.74442 11.0423 8.75471 11.1511 8.74344C11.26 8.73217 11.3655 8.69956 11.4617 8.64746C11.558 8.59537 11.643 8.52482 11.712 8.43985C11.781 8.35487 11.8326 8.25712 11.8638 8.15219C11.8951 8.04726 11.9054 7.9372 11.8941 7.8283C11.8828 7.71939 11.8502 7.61377 11.7982 7.51747L10.7772 5.62914C10.5386 5.18685 10.1848 4.81738 9.75342 4.55988C9.32204 4.30237 8.82908 4.16642 8.32678 4.16642C7.82447 4.16642 7.33151 4.30237 6.90013 4.55988C6.46875 4.81738 6.115 5.18685 5.87635 5.62914L0.335937 15.8791C0.10618 16.3043 -0.00936903 16.7818 0.000593834 17.265C0.0105567 17.7483 0.14569 18.2206 0.392776 18.6359C0.639861 19.0512 0.990439 19.3953 1.41022 19.6343C1.83 19.8734 2.3046 19.9994 2.78761 19.9999H5.82722C6.04808 19.9999 6.2599 19.9121 6.41608 19.7558C6.57225 19.5996 6.65999 19.3876 6.65999 19.1666Z" fill="#EF2543"/>
</svg>
