<svg width="20" height="20" viewBox="0 0 20 20" fill="none" xmlns="http://www.w3.org/2000/svg">
<path d="M19.265 0.726871C19.0045 0.466893 18.6895 0.267957 18.3428 0.144398C17.9962 0.020839 17.6264 -0.0242663 17.2602 0.0123323C14.932 0.237449 7.102 1.20712 4.07771 4.22869C2.63206 5.67858 1.77481 7.61281 1.67151 9.65787C1.56821 11.7029 2.22618 13.7137 3.51837 15.302L0.234 18.587C0.082154 18.7443 -0.00186777 18.9549 3.15121e-05 19.1735C0.00193079 19.3921 0.0895992 19.6012 0.244155 19.7558C0.39871 19.9104 0.607786 19.9981 0.826353 20C1.04492 20.0019 1.25549 19.9178 1.4127 19.766L4.69707 16.4809C6.28466 17.7751 8.2956 18.4346 10.3411 18.3318C12.3866 18.2291 14.3214 17.3715 15.7714 15.9248C18.8357 12.859 19.7727 5.05162 19.9886 2.73208C20.0239 2.36512 19.9773 1.99489 19.8521 1.64813C19.727 1.30136 19.5265 0.986706 19.265 0.726871ZM14.5969 14.7425C13.4603 15.8752 11.9504 16.5554 10.3491 16.6562C8.7478 16.757 7.16457 16.2715 5.89495 15.2903L13.9241 7.25944C14.076 7.10219 14.16 6.89158 14.1581 6.67297C14.1562 6.45436 14.0685 6.24524 13.914 6.09065C13.7594 5.93606 13.5504 5.84837 13.3318 5.84648C13.1132 5.84458 12.9027 5.92861 12.7454 6.08049L4.71208 14.1113C3.73091 12.8415 3.24539 11.2579 3.34617 9.65627C3.44696 8.05461 4.12716 6.54439 5.25975 5.40764C7.35124 3.31655 13.1181 2.08424 17.4211 1.67153C17.543 1.65967 17.6659 1.67481 17.7813 1.71587C17.8967 1.75693 18.0016 1.82291 18.0885 1.90911C18.1755 1.99531 18.2425 2.09962 18.2846 2.21463C18.3267 2.32963 18.3429 2.4525 18.3322 2.5745C17.9154 7.06601 16.7142 12.6206 14.5927 14.7425H14.5969Z" fill="#EF2543"/>
</svg>
