<svg width="46" height="45" viewBox="0 0 46 45" fill="none" xmlns="http://www.w3.org/2000/svg">
<path d="M5.40646 2.60339C5.40559 2.60339 5.40559 2.60339 5.40473 2.60339C4.81926 2.60339 4.26929 2.83117 3.85444 3.24516C3.43958 3.65915 3.21094 4.20998 3.21094 4.79805C3.21267 6.00537 4.19568 6.98924 5.403 6.99184C5.40386 6.99184 5.40386 6.99184 5.40473 6.99184C5.9902 6.99184 6.54017 6.76406 6.95502 6.35007C7.36987 5.93609 7.59852 5.38526 7.59852 4.79892C7.59939 4.21258 7.37161 3.66175 6.95675 3.24689C6.54276 2.83291 5.99193 2.60426 5.40646 2.60339ZM4.93531 4.3295C5.06003 4.20478 5.22545 4.13636 5.40126 4.13636H5.40213C5.76589 4.13723 6.06209 4.43343 6.06209 4.79718V4.79805C6.06209 4.97473 5.9928 5.14015 5.86808 5.26487C5.74337 5.38959 5.57795 5.45801 5.40126 5.45801H5.4004C5.22372 5.45801 5.05829 5.38872 4.93358 5.264C4.80886 5.13929 4.74044 4.973 4.74044 4.79632C4.74131 4.6205 4.81059 4.45422 4.93531 4.3295Z" fill="#FF8D2D"/>
<path d="M15.0783 2.60339C15.0775 2.60339 15.0775 2.60339 15.0766 2.60339C13.8676 2.60339 12.8837 3.5864 12.8828 4.79718C12.8845 6.00451 13.8675 6.98838 15.0749 6.99098C15.0757 6.99098 15.0757 6.99098 15.0766 6.99098C16.2857 6.99098 17.2695 6.00797 17.2704 4.79892C17.2713 4.21258 17.0435 3.66175 16.6295 3.24689C16.2155 2.83291 15.6647 2.60426 15.0783 2.60339ZM14.6072 4.3295C14.7319 4.20478 14.8973 4.13636 15.0731 4.13636H15.074C15.4378 4.13723 15.734 4.43343 15.734 4.79718V4.79805C15.734 4.97473 15.6647 5.14015 15.54 5.26487C15.4152 5.38959 15.2498 5.45801 15.0731 5.45801H15.0723C14.8956 5.45801 14.7302 5.38872 14.6055 5.264C14.4807 5.13929 14.4123 4.973 14.4123 4.79632C14.414 4.6205 14.4825 4.45422 14.6072 4.3295Z" fill="#FF8D2D"/>
<path d="M10.2424 2.60339C10.2415 2.60339 10.2415 2.60339 10.2407 2.60339C9.03161 2.60339 8.04774 3.5864 8.04688 4.79805C8.04861 6.00451 9.03161 6.98838 10.2389 6.99184C10.2398 6.99184 10.2398 6.99184 10.2407 6.99184C10.8261 6.99184 11.3761 6.76406 11.791 6.35094C12.2058 5.93695 12.4345 5.38612 12.4345 4.79978C12.4353 4.21344 12.2075 3.66261 11.7936 3.24776C11.3787 2.83291 10.8287 2.60426 10.2424 2.60339ZM10.2372 4.13636C10.2381 4.13636 10.2381 4.13636 10.2372 4.13636C10.6018 4.13723 10.898 4.43343 10.898 4.79718V4.79805C10.898 5.16181 10.601 5.45801 10.2372 5.45801H10.2363C9.87171 5.45801 9.57551 5.16094 9.57638 4.79632C9.57725 4.43256 9.87345 4.13636 10.2372 4.13636Z" fill="#FF8D2D"/>
<path d="M40.9271 2.58521H23.5673C22.8095 2.5878 22.1911 3.20619 22.1885 3.96488V5.62949C22.1885 5.99758 22.3314 6.34488 22.5921 6.60557C22.8528 6.86626 23.1992 7.01003 23.5681 7.01003H40.9253C41.2934 7.01003 41.6399 6.86626 41.9006 6.60643C42.1612 6.34574 42.305 5.99931 42.305 5.63036V3.96401C42.3033 3.20619 41.6849 2.5878 40.9271 2.58521ZM40.7729 4.11817V5.47706H23.7214V4.11817H40.7729Z" fill="#FF8D2D"/>
<path d="M22.7582 22.3467C22.7573 22.3467 22.7564 22.3467 22.7556 22.3467C20.8892 22.3467 19.1336 23.0733 17.8128 24.3932C16.492 25.7131 15.7645 27.4687 15.7637 29.3368C15.7628 33.1918 18.8989 36.3296 22.7538 36.3305C22.7547 36.3305 22.7547 36.3305 22.7556 36.3305C26.6088 36.3305 29.7457 33.1952 29.7475 29.3412C29.7449 25.4906 26.6096 22.3527 22.7582 22.3467ZM22.7599 34.7975H22.759C19.7546 34.7932 17.3062 32.3456 17.301 29.3368C17.301 27.8784 17.87 26.5082 18.9006 25.4776C19.9313 24.4469 21.3023 23.8796 22.7599 23.8796C22.7608 23.8796 22.7608 23.8796 22.7616 23.8796C25.7713 23.8805 28.2197 26.3298 28.2188 29.3403C28.2188 30.7988 27.6507 32.1689 26.6192 33.1996C25.5877 34.2302 24.2175 34.7975 22.7599 34.7975Z" fill="#FF8D2D"/>
<path d="M41.5954 0H3.9199C1.76162 0.00346434 0.00346434 1.76248 0 3.92163V32.5474C0.00433042 34.7049 1.76248 36.4613 3.92076 36.4621H11.2556L10.1774 38.0055C9.96517 38.3104 10.0007 38.7235 10.264 38.9885L13.1125 41.8379C13.3749 42.0978 13.7863 42.1341 14.0929 41.9237L16.4296 40.2859C17.391 40.8437 18.4199 41.2706 19.4938 41.5564L19.991 44.3669C20.0568 44.7315 20.3729 44.9974 20.7453 45H24.7743C25.1442 44.9974 25.4603 44.7306 25.527 44.366L26.0241 41.5573C27.098 41.2715 28.1269 40.8445 29.0883 40.2868L31.4285 41.9263C31.7325 42.135 32.1438 42.0986 32.4071 41.8379L35.2548 38.9894C35.5172 38.7252 35.5528 38.3121 35.3406 38.0064L34.2606 36.4621H41.5946C43.7528 36.4613 45.511 34.7057 45.5153 32.5474V3.92076C45.5119 1.76248 43.7537 0.00346434 41.5954 0ZM21.3871 43.467L20.9151 40.7978C20.8622 40.4903 20.6301 40.2487 20.327 40.1828C19.0755 39.9031 17.8924 39.412 16.8072 38.7218C16.5457 38.5589 16.2131 38.5676 15.9602 38.7434L13.7396 40.2946L11.8013 38.3554L13.3542 36.1391C13.5317 35.8845 13.5386 35.5502 13.3723 35.2869C12.6838 34.2043 12.1936 33.0203 11.9147 31.7636C11.8446 31.4648 11.6038 31.2371 11.3015 31.1834L8.63399 30.7122V27.9693L11.3015 27.4973C11.609 27.4427 11.8498 27.2106 11.9156 26.9075C12.1953 25.6551 12.6855 24.4712 13.3723 23.3895C13.5404 23.1279 13.5334 22.7945 13.355 22.5424L11.803 20.3201L13.7422 18.3809L15.9637 19.9321C16.2166 20.1087 16.5491 20.1174 16.8133 19.952C17.8959 19.2643 19.079 18.7732 20.3279 18.4935C20.6327 18.4268 20.8648 18.1852 20.9177 17.8794L21.3905 15.2145H24.1326L24.6046 17.8786C24.6583 18.186 24.8895 18.4268 25.1918 18.4935C26.4433 18.7741 27.6264 19.2652 28.7116 19.9537C28.9731 20.1165 29.3057 20.1079 29.5586 19.9321L31.7792 18.3809L33.7175 20.3201L32.1664 22.5407C31.9862 22.7945 31.9793 23.1279 32.1464 23.3877C32.8341 24.4712 33.3243 25.6551 33.6032 26.9058C33.669 27.2106 33.9107 27.4436 34.2181 27.4982L36.8848 27.9702V30.7122L34.2181 31.1834C33.915 31.2362 33.6742 31.464 33.6032 31.7671C33.3243 33.0195 32.8341 34.2043 32.1456 35.2869C31.9793 35.5493 31.9871 35.8836 32.1646 36.1391L33.7167 38.3545L31.7784 40.2937L29.5569 38.7417C29.304 38.5659 28.9722 38.5572 28.7072 38.7218C27.6264 39.412 26.4433 39.9031 25.1927 40.1802C24.8878 40.2469 24.6565 40.4886 24.6037 40.7943L24.1308 43.4653H21.3871V43.467ZM34.9751 32.6081L37.7838 32.1066C38.1501 32.0416 38.416 31.7238 38.416 31.3514V27.3267C38.416 26.9543 38.1501 26.6373 37.7829 26.5715L34.9751 26.0761C34.6893 25.0012 34.2632 23.9723 33.7054 23.0101L35.3397 20.6726C35.5519 20.3668 35.5164 19.9546 35.2531 19.6896L32.408 16.8505C32.1447 16.582 31.7299 16.5448 31.425 16.7613L29.0874 18.393C28.1261 17.8353 27.0972 17.4083 26.0232 17.1225L25.5261 14.3216C25.4629 13.9526 25.1468 13.6859 24.7735 13.6859C24.7726 13.6859 24.7717 13.6859 24.7709 13.6859H20.7453C20.7444 13.6859 20.7436 13.6859 20.7427 13.6859C20.3686 13.6859 20.0524 13.9526 19.9892 14.3198L19.4921 17.1225C18.4181 17.4083 17.3892 17.8353 16.4279 18.393L14.0921 16.7631C13.7855 16.5457 13.3706 16.5829 13.1099 16.8488L10.2614 19.6913C9.99894 19.9554 9.96343 20.3686 10.1765 20.6743L11.8108 23.011C11.253 23.9732 10.8269 25.003 10.5402 26.0769L7.73153 26.5723C7.36518 26.6381 7.09929 26.9551 7.09929 27.3276V31.3522C7.09929 31.7247 7.36518 32.0416 7.73153 32.1075L10.5402 32.6089C10.7542 33.4101 11.0478 34.1878 11.415 34.93H3.9199C3.9199 34.93 3.9199 34.93 3.91903 34.93C2.60518 34.93 1.53384 33.8613 1.5321 32.5474V9.59448H43.9832V32.5457C43.9806 33.8596 42.9101 34.9283 41.5963 34.9283H41.5954H34.1003C34.4676 34.1869 34.7603 33.4092 34.9751 32.6081ZM43.9832 3.92163V8.06238H1.5321V3.92163C1.53384 2.60605 2.60518 1.53383 3.9199 1.5321L41.5946 1.53297C42.9101 1.5347 43.9815 2.60605 43.9832 3.92163Z" fill="white"/>
</svg>
