<svg width="45" height="45" viewBox="0 0 45 45" fill="none" xmlns="http://www.w3.org/2000/svg">
<path d="M27.2513 21.7742V20.3226L21.2017 10.9125L25.0675 5.59778C25.4005 5.73024 25.7571 5.80645 26.129 5.80645C27.7303 5.80645 29.0323 4.50454 29.0323 2.90323C29.0323 1.30192 27.7303 0 26.129 0C24.5277 0 23.2258 1.30192 23.2258 2.90323C23.2258 3.58911 23.4708 4.24325 23.8899 4.74859L19.9533 10.1613H12.962C12.6372 8.912 11.5113 7.98387 10.1622 7.98387C8.56089 7.98387 7.25897 9.28579 7.25897 10.8871C7.25897 11.632 7.54022 12.3305 8.03196 12.8586L4.93548 17.6743C4.51996 17.5119 4.08085 17.4194 3.62903 17.4194C1.62762 17.4194 0 19.047 0 21.0484C0 23.0498 1.62762 24.6774 3.62903 24.6774C4.08085 24.6774 4.52177 24.5849 4.93639 24.4234L9.28216 31.1843L5.41633 36.499C5.08337 36.3665 4.72681 36.2903 4.35484 36.2903C2.75353 36.2903 1.45161 37.5922 1.45161 39.1936C1.45161 40.7949 2.75353 42.0968 4.35484 42.0968C5.95615 42.0968 7.25806 40.7949 7.25806 39.1936C7.25806 38.5077 7.0131 37.8535 6.59395 37.3482L10.5305 31.9355H19.9261L21.1854 31.2097L27.2513 21.7742ZM26.129 1.45161C26.9292 1.45161 27.5806 2.10302 27.5806 2.90323C27.5806 3.70343 26.9292 4.35484 26.129 4.35484C25.8169 4.35484 25.5275 4.25958 25.2708 4.06724C24.8997 3.80413 24.6774 3.36865 24.6774 2.90323C24.6774 2.10302 25.3288 1.45161 26.129 1.45161ZM4.35484 40.6452C3.55464 40.6452 2.90323 39.9938 2.90323 39.1936C2.90323 38.3933 3.55464 37.7419 4.35484 37.7419C4.66694 37.7419 4.95635 37.8372 5.2131 38.0295C5.58417 38.2926 5.80645 38.7281 5.80645 39.1936C5.80645 39.9938 5.15504 40.6452 4.35484 40.6452ZM10.1613 9.43548C10.9615 9.43548 11.6129 10.0869 11.6129 10.8871C11.6129 11.6873 10.9615 12.3387 10.1613 12.3387C9.88367 12.3387 9.61966 12.2607 9.3756 12.1046C8.95827 11.8379 8.70968 11.3834 8.70968 10.8871C8.70968 10.0869 9.36109 9.43548 10.1613 9.43548ZM4.80121 22.8783C4.45192 23.106 4.04637 23.2258 3.62903 23.2258C2.42873 23.2258 1.45161 22.2487 1.45161 21.0484C1.45161 19.8481 2.42873 18.871 3.62903 18.871C4.04637 18.871 4.45192 18.9907 4.80575 19.2203C5.43175 19.6213 5.80645 20.3053 5.80645 21.0484C5.80645 21.7914 5.43175 22.4755 4.80121 22.8783ZM10.5578 30.4839L6.15756 23.6395C6.85343 22.9654 7.25806 22.0409 7.25806 21.0484C7.25806 20.054 6.85252 19.1304 6.15756 18.4564L9.25494 13.637C9.54708 13.735 9.85192 13.7903 10.1604 13.7903C11.5095 13.7903 12.6363 12.8622 12.9602 11.6129H19.9252L25.9911 21.0484L19.9252 30.4839H10.5578Z" fill="white"/>
<path d="M37.8777 21.0467L41.201 15.8227C41.4868 15.9152 41.788 15.9678 42.0964 15.9678C43.6978 15.9678 44.9997 14.6659 44.9997 13.0646C44.9997 11.4633 43.6978 10.1614 42.0964 10.1614C40.4951 10.1614 39.1932 11.4633 39.1932 13.0646C39.1932 13.8176 39.4781 14.5217 39.9735 15.0488L36.6175 20.3227H27.251V21.7743H36.6193L42.6853 31.2098L38.3223 37.997C37.9067 37.8355 37.4676 37.742 37.0158 37.742C35.2639 37.742 33.7978 38.9913 33.4603 40.6452H28.8986C28.5983 39.8024 27.7999 39.1936 26.8545 39.1936C26.683 39.1936 26.5179 39.2181 26.3564 39.2553L21.1851 31.2098L19.9258 31.9356L25.1443 40.0528C24.8558 40.4284 24.6771 40.8884 24.6771 41.3711C24.6771 42.5714 25.6542 43.5485 26.8545 43.5485C27.7999 43.5485 28.5983 42.9397 28.8986 42.0969H33.4603C33.7978 43.7508 35.263 45.0001 37.0158 45.0001C39.0172 45.0001 40.6448 43.3725 40.6448 41.3711C40.6448 40.3767 40.2393 39.4531 39.5443 38.779L44.41 31.2098L37.8777 21.0467ZM42.0964 11.613C42.8966 11.613 43.5481 12.2644 43.5481 13.0646C43.5481 13.8648 42.8966 14.5162 42.0964 14.5162C41.8152 14.5162 41.5476 14.4391 41.3153 14.2876C40.8961 14.0218 40.6448 13.5645 40.6448 13.0646C40.6448 12.2644 41.2962 11.613 42.0964 11.613ZM26.8545 42.0969C26.4535 42.0969 26.1287 41.7721 26.1287 41.3711C26.1287 41.1261 26.2557 40.8938 26.4771 40.7523C26.5832 40.6815 26.7103 40.6452 26.8545 40.6452C27.2555 40.6452 27.5803 40.97 27.5803 41.3711C27.5803 41.7721 27.2555 42.0969 26.8545 42.0969ZM37.0158 43.5485C35.8155 43.5485 34.8384 42.5714 34.8384 41.3711C34.8384 40.1708 35.8155 39.1936 37.0158 39.1936C37.4331 39.1936 37.8387 39.3134 38.1925 39.5429C38.8185 39.9439 39.1932 40.628 39.1932 41.3711C39.1932 42.5714 38.2161 43.5485 37.0158 43.5485Z" fill="#2BC7B8"/>
<path d="M15.9676 17.4194H10.1611V18.871H15.9676V17.4194Z" fill="white"/>
<path d="M20.3222 17.4194H17.4189V18.871H20.3222V17.4194Z" fill="white"/>
<path d="M20.3224 20.3225H10.1611V21.7741H20.3224V20.3225Z" fill="white"/>
<path d="M20.3227 23.2258H18.8711V24.6774H20.3227V23.2258Z" fill="white"/>
<path d="M17.4194 23.2258H15.9678V24.6774H17.4194V23.2258Z" fill="white"/>
<path d="M14.516 23.2258H10.1611V24.6774H14.516V23.2258Z" fill="white"/>
<path d="M32.6609 27.5488H26.8545V29.0004H32.6609V27.5488Z" fill="#2BC7B8"/>
<path d="M37.0155 27.5488H34.1123V29.0004H37.0155V27.5488Z" fill="#2BC7B8"/>
<path d="M37.0158 30.4521H26.8545V31.9038H37.0158V30.4521Z" fill="#2BC7B8"/>
<path d="M37.0161 33.3872H35.5645V34.8388H37.0161V33.3872Z" fill="#2BC7B8"/>
<path d="M34.1127 33.3872H32.6611V34.8388H34.1127V33.3872Z" fill="#2BC7B8"/>
<path d="M31.2093 33.3552H26.8545V34.8068H31.2093V33.3552Z" fill="#2BC7B8"/>
</svg>
