<svg width="45" height="45" viewBox="0 0 45 45" fill="none" xmlns="http://www.w3.org/2000/svg">
<path d="M41.152 0H3.84797C1.72691 0 0 1.72556 0 3.84797V41.152C0 43.2731 1.72556 45 3.84797 45H41.152C43.2731 45 45 43.2744 45 41.152V3.84797C45 1.72556 43.2744 0 41.152 0ZM43.3747 41.152C43.3747 42.3778 42.3778 43.3747 41.152 43.3747H3.84797C2.6222 43.3747 1.62533 42.3778 1.62533 41.152V8.5831H43.3747V41.152ZM43.3747 6.95777H1.62533V3.84797C1.62533 2.6222 2.6222 1.62533 3.84797 1.62533H41.152C42.3778 1.62533 43.3747 2.6222 43.3747 3.84797V6.95777Z" fill="white"/>
<path d="M6.24431 15.5173H18.8176C19.2659 15.5173 19.6303 15.153 19.6303 14.7046C19.6303 14.2563 19.2659 13.892 18.8176 13.892H6.24431C5.79599 13.892 5.43164 14.2563 5.43164 14.7046C5.43164 15.153 5.79463 15.5173 6.24431 15.5173ZM6.24431 20.9811H18.8176C19.2659 20.9811 19.6303 20.6168 19.6303 20.1685C19.6303 19.7201 19.2659 19.3558 18.8176 19.3558H6.24431C5.79599 19.3558 5.43164 19.7201 5.43164 20.1685C5.43164 20.6168 5.79463 20.9811 6.24431 20.9811ZM6.24431 26.4436H18.8176C19.2659 26.4436 19.6303 26.0792 19.6303 25.6309C19.6303 25.1826 19.2659 24.8183 18.8176 24.8183H6.24431C5.79599 24.8183 5.43164 25.1826 5.43164 25.6309C5.43164 26.0792 5.79463 26.4436 6.24431 26.4436ZM6.24431 31.9061H12.5316C12.9799 31.9061 13.3443 31.5417 13.3443 31.0934C13.3443 30.6451 12.9799 30.2807 12.5316 30.2807H6.24431C5.79599 30.2807 5.43164 30.6451 5.43164 31.0934C5.43164 31.5417 5.79463 31.9061 6.24431 31.9061Z" fill="white"/>
<path d="M12.755 3.27063H12.7361C12.1753 3.27063 11.7202 3.72572 11.7202 4.28646C11.7202 4.8472 12.1753 5.30229 12.7361 5.30229H12.755C13.3158 5.30229 13.7709 4.8472 13.7709 4.28646C13.7709 3.72572 13.3158 3.27063 12.755 3.27063ZM5.12952 3.27063H5.11056C4.54982 3.27063 4.09473 3.72572 4.09473 4.28646C4.09473 4.8472 4.54982 5.30229 5.11056 5.30229H5.12952C5.69026 5.30229 6.14535 4.8472 6.14535 4.28646C6.14535 3.72572 5.69161 3.27063 5.12952 3.27063ZM8.94228 3.27063H8.92331C8.36258 3.27063 7.90748 3.72572 7.90748 4.28646C7.90748 4.8472 8.36258 5.30229 8.92331 5.30229H8.94228C9.50302 5.30229 9.95811 4.8472 9.95811 4.28646C9.95811 3.72572 9.50302 3.27063 8.94228 3.27063ZM39.5676 14.4502C39.5676 14.4339 39.5662 14.419 39.5649 14.4028C39.5635 14.3906 39.5635 14.3784 39.5622 14.3676C39.5608 14.354 39.5581 14.3418 39.5567 14.3297C39.554 14.3161 39.5527 14.3012 39.5486 14.2877C39.5459 14.2768 39.5432 14.2674 39.5405 14.2565C39.5364 14.2416 39.5324 14.2254 39.5269 14.2105C39.5242 14.201 39.5202 14.1915 39.5161 14.182C39.5107 14.1671 39.5053 14.1522 39.4985 14.1373C39.4944 14.1265 39.489 14.1157 39.4836 14.1062C39.4782 14.094 39.4714 14.0804 39.4646 14.0696C39.4579 14.0561 39.4497 14.0439 39.4416 14.0317C39.4362 14.0222 39.4308 14.0127 39.424 14.0046C39.4145 13.991 39.405 13.9775 39.3942 13.9653C39.3888 13.9585 39.3834 13.9504 39.3766 13.9436L39.3441 13.9071C39.3373 13.9003 39.3306 13.8922 39.3238 13.8854C39.3129 13.8746 39.3021 13.8651 39.2913 13.8556L39.2628 13.8312C39.2533 13.8231 39.2439 13.8163 39.233 13.8096C39.2208 13.8001 39.2086 13.7919 39.1951 13.7838C39.191 13.7811 39.1883 13.7798 39.1856 13.777C39.1802 13.773 39.1734 13.7703 39.1667 13.7662C39.1531 13.7581 39.1382 13.75 39.1247 13.7432C39.1152 13.7378 39.1044 13.7337 39.0949 13.7283C39.0813 13.7215 39.0664 13.7161 39.0529 13.7107C39.0421 13.7066 39.0299 13.7025 39.019 13.6985C39.0055 13.6944 38.9933 13.6904 38.9797 13.6863C38.9662 13.6822 38.954 13.6795 38.9405 13.6755L38.9039 13.6673C38.889 13.6646 38.8741 13.6619 38.8592 13.6606C38.8484 13.6592 38.8375 13.6579 38.8253 13.6565C38.8091 13.6551 38.7928 13.6538 38.7766 13.6538C38.7698 13.6538 38.763 13.6524 38.7563 13.6524H23.6678C23.661 13.6524 23.6542 13.6538 23.6461 13.6538C23.6299 13.6538 23.615 13.6551 23.5987 13.6565C23.5865 13.6579 23.5757 13.6592 23.5648 13.6606C23.5499 13.6619 23.535 13.6646 23.5215 13.6673C23.5093 13.67 23.4958 13.6728 23.4836 13.6755C23.47 13.6782 23.4578 13.6822 23.4443 13.6849L23.4037 13.6971C23.3928 13.7012 23.3806 13.7053 23.3698 13.7093C23.3549 13.7147 23.3414 13.7215 23.3278 13.7283C23.3183 13.7323 23.3075 13.7378 23.298 13.7432C23.2831 13.75 23.2696 13.7581 23.256 13.7676C23.2506 13.7716 23.2438 13.7743 23.2371 13.7784C23.233 13.7811 23.2303 13.7825 23.2276 13.7852C23.2154 13.7933 23.2018 13.8028 23.1897 13.8109C23.1802 13.8177 23.1693 13.8258 23.1599 13.8326L23.1314 13.857C23.1206 13.8664 23.1097 13.8759 23.0989 13.8868C23.0921 13.8935 23.0854 13.9017 23.0786 13.9084C23.0678 13.9206 23.0556 13.9328 23.0461 13.945C23.0407 13.9518 23.0339 13.9599 23.0285 13.9667C23.0176 13.9802 23.0082 13.9924 22.9987 14.0059C22.9919 14.0154 22.9865 14.0249 22.9811 14.033C22.9729 14.0452 22.9648 14.0574 22.958 14.071C22.9513 14.0831 22.9459 14.0953 22.9391 14.1075C22.9337 14.1184 22.9283 14.1292 22.9242 14.1387C22.9174 14.1536 22.912 14.1685 22.9066 14.1834C22.9025 14.1929 22.8998 14.2023 22.8957 14.2118C22.8903 14.2267 22.8863 14.243 22.8822 14.2579C22.8795 14.2687 22.8768 14.2782 22.8741 14.289C22.8714 14.3026 22.8687 14.3175 22.8659 14.331C22.8632 14.3432 22.8619 14.3567 22.8605 14.3689C22.8592 14.3811 22.8578 14.3933 22.8578 14.4042C22.8565 14.4204 22.8551 14.4353 22.8551 14.4516V38.5512C22.8551 38.5674 22.8565 38.5823 22.8578 38.5986C22.8592 38.6108 22.8592 38.6229 22.8605 38.6338C22.8619 38.646 22.8646 38.6595 22.8659 38.6717C22.8687 38.6852 22.87 38.7001 22.8741 38.7137C22.8768 38.7245 22.8795 38.734 22.8822 38.7435C22.8863 38.7584 22.8903 38.7746 22.8957 38.7895C22.8985 38.799 22.9025 38.8085 22.9066 38.818C22.912 38.8329 22.9174 38.8478 22.9242 38.8627C22.9283 38.8735 22.9337 38.883 22.9391 38.8938C22.9459 38.906 22.9513 38.9196 22.958 38.9318C22.9648 38.9439 22.9729 38.9561 22.9811 38.9697C22.9865 38.9792 22.9919 38.9886 22.9987 38.9981C23.0082 39.0117 23.0176 39.0252 23.0285 39.0374C23.0339 39.0455 23.0393 39.0523 23.0461 39.0604L23.0786 39.097C23.0854 39.1038 23.0921 39.1119 23.1003 39.1187C23.1111 39.1281 23.1219 39.139 23.1328 39.1485L23.1612 39.1728C23.1707 39.181 23.1802 39.1877 23.191 39.1945C23.2032 39.204 23.2154 39.2121 23.2289 39.2202C23.233 39.223 23.2357 39.2243 23.2384 39.227C23.2425 39.2297 23.2465 39.2311 23.2506 39.2338C23.2763 39.25 23.3034 39.2636 23.3319 39.2771C23.3373 39.2798 23.3414 39.2826 23.3468 39.2839C23.3779 39.2975 23.4091 39.3083 23.4416 39.3178C23.4497 39.3205 23.4592 39.3218 23.4673 39.3245C23.4917 39.3313 23.5161 39.3354 23.5405 39.3394C23.5513 39.3408 23.5621 39.3435 23.5716 39.3449C23.6001 39.3489 23.6299 39.3503 23.6596 39.3503H38.7698C38.7996 39.3503 38.8294 39.3476 38.8578 39.3449C38.8687 39.3435 38.8795 39.3422 38.889 39.3394C38.9134 39.3354 38.9378 39.33 38.9621 39.3245C38.9703 39.3218 38.9797 39.3205 38.9879 39.3178C39.0204 39.3083 39.0515 39.2975 39.0827 39.2839C39.0881 39.2812 39.0922 39.2785 39.0976 39.2771C39.126 39.2649 39.1518 39.25 39.1775 39.2338C39.1816 39.2311 39.1856 39.2297 39.1897 39.227C39.1938 39.2243 39.1965 39.223 39.1992 39.2202C39.2114 39.2121 39.2249 39.2026 39.2371 39.1945C39.2466 39.1877 39.2574 39.1796 39.2669 39.1728L39.2953 39.1485C39.3062 39.139 39.317 39.1295 39.3278 39.1187C39.3346 39.1119 39.3414 39.1038 39.3495 39.097C39.3603 39.0848 39.3725 39.0726 39.382 39.0604C39.3888 39.0537 39.3942 39.0455 39.3996 39.0374C39.4091 39.0239 39.4199 39.0117 39.4294 38.9981C39.4362 38.9886 39.4416 38.9792 39.447 38.9697C39.4552 38.9575 39.4633 38.9453 39.4701 38.9318C39.4768 38.9196 39.4822 38.9074 39.489 38.8938C39.4944 38.883 39.4999 38.8735 39.5039 38.8627C39.5107 38.8478 39.5161 38.8329 39.5215 38.818C39.5242 38.8085 39.5283 38.799 39.5324 38.7895C39.5378 38.7746 39.5418 38.7584 39.5459 38.7435C39.5486 38.734 39.5513 38.7232 39.554 38.7137C39.5567 38.7001 39.5595 38.6852 39.5622 38.6717C39.5649 38.6595 39.5662 38.646 39.5676 38.6338C39.5689 38.6216 39.5703 38.6094 39.5703 38.5986C39.5716 38.5823 39.573 38.5674 39.573 38.5512V14.461C39.5676 14.457 39.5676 14.4543 39.5676 14.4502ZM37.2867 15.2737L31.2107 24.9688L25.1346 15.2737H37.2867ZM24.4804 17.2891L30.2531 26.4993L24.4804 35.7095V17.2891ZM25.136 37.7236L31.212 28.0285L37.2881 37.7236H25.136ZM37.9422 35.7095L32.1696 26.4993L37.9422 17.2891V35.7095Z" fill="#EF2543"/>
</svg>
