<svg width="14" height="18" viewBox="0 0 14 18" fill="none" xmlns="http://www.w3.org/2000/svg">
<path d="M7 9C7.92298 9 8.82523 8.73608 9.59266 8.24162C10.3601 7.74715 10.9582 7.04435 11.3114 6.22208C11.6646 5.39981 11.7571 4.49501 11.577 3.6221C11.3969 2.74918 10.9525 1.94736 10.2998 1.31802C9.64719 0.688685 8.81567 0.260102 7.91042 0.0864683C7.00518 -0.0871652 6.06687 0.0019498 5.21414 0.342544C4.36142 0.683138 3.63259 1.25991 3.11981 1.99994C2.60703 2.73996 2.33333 3.60999 2.33333 4.5C2.33457 5.69311 2.82663 6.83701 3.70153 7.68067C4.57644 8.52432 5.7627 8.99881 7 9ZM7 1.5C7.61532 1.5 8.21682 1.67595 8.72844 2.00559C9.24006 2.33524 9.63882 2.80377 9.87429 3.35195C10.1098 3.90013 10.1714 4.50333 10.0513 5.08527C9.93129 5.66722 9.63498 6.20177 9.19989 6.62132C8.76479 7.04088 8.21044 7.3266 7.60695 7.44236C7.00345 7.55811 6.37791 7.4987 5.80943 7.27164C5.24095 7.04458 4.75506 6.66006 4.41321 6.16671C4.07135 5.67337 3.88889 5.09335 3.88889 4.5C3.88889 3.70435 4.21667 2.94129 4.80011 2.37868C5.38356 1.81607 6.17488 1.5 7 1.5Z" fill="white"/>
<path d="M7 10.5C5.14412 10.502 3.36483 11.2138 2.05253 12.4792C0.740218 13.7447 0.00205866 15.4604 0 17.25C0 17.4489 0.0819442 17.6397 0.227806 17.7803C0.373667 17.921 0.571498 18 0.777778 18C0.984057 18 1.18189 17.921 1.32775 17.7803C1.47361 17.6397 1.55556 17.4489 1.55556 17.25C1.55556 15.8576 2.12916 14.5223 3.1502 13.5377C4.17123 12.5531 5.55604 12 7 12C8.44396 12 9.82877 12.5531 10.8498 13.5377C11.8708 14.5223 12.4444 15.8576 12.4444 17.25C12.4444 17.4489 12.5264 17.6397 12.6722 17.7803C12.8181 17.921 13.0159 18 13.2222 18C13.4285 18 13.6263 17.921 13.7722 17.7803C13.9181 17.6397 14 17.4489 14 17.25C13.9979 15.4604 13.2598 13.7447 11.9475 12.4792C10.6352 11.2138 8.85588 10.502 7 10.5Z" fill="white"/>
</svg>
