<svg width="55" height="45" viewBox="0 0 55 45" fill="none" xmlns="http://www.w3.org/2000/svg">
<path d="M34.064 23.2398C31.7685 23.2398 29.6 22.4799 27.7931 21.045C27.3392 20.6845 27.2592 20.0182 27.614 19.557C27.9688 19.0958 28.6261 19.0145 29.0783 19.375C30.5147 20.5166 32.2381 21.121 34.0623 21.121C38.5229 21.121 42.1505 17.4346 42.1505 12.9017C42.1505 8.36885 38.5229 4.68247 34.0623 4.68247C32.9563 4.68247 31.8868 4.90513 30.8799 5.3434C30.3495 5.5749 29.7373 5.32573 29.5095 4.78673C29.2817 4.2495 29.5269 3.62568 30.0573 3.39418C31.3251 2.84104 32.6728 2.56006 34.064 2.56006C39.6742 2.56006 44.2391 7.19896 44.2391 12.9C44.2391 18.6009 39.6742 23.2398 34.064 23.2398ZM53.5812 42.9371H45.1156C44.54 42.9371 44.0722 42.4617 44.0722 41.8767C44.0722 41.2918 44.54 40.8164 45.1156 40.8164H52.9134V39.8409C52.9134 33.5037 47.8389 28.3471 41.6027 28.3471H17.305C16.9085 28.5503 16.4147 28.4796 16.0877 28.1403C15.686 27.7215 15.6947 27.0499 16.1068 26.6399C16.3764 26.3731 16.7294 26.2264 17.1033 26.2264H41.6027C48.9901 26.2264 55.0002 32.3339 55.0002 39.8409V41.495C55.0002 42.2903 54.3637 42.9371 53.5812 42.9371Z" fill="#2BC7B8"/>
<path d="M23.0039 22.8605C16.8025 22.8605 11.7558 17.7321 11.7558 11.4303C11.7558 5.12842 16.8025 0 23.0039 0C29.2052 0 34.2519 5.12842 34.2519 11.4303C34.2519 17.7321 29.2052 22.8605 23.0039 22.8605ZM23.0039 2.12064C17.952 2.12064 13.8427 6.29654 13.8427 11.4303C13.8427 16.564 17.952 20.7399 23.0039 20.7399C28.0557 20.7399 32.1651 16.564 32.1651 11.4303C32.1651 6.29654 28.0557 2.12064 23.0039 2.12064ZM45.1173 45H1.04342C0.467799 45 0 44.5246 0 43.9397V41.8402C0 33.2923 6.84308 26.3384 15.2548 26.3384H30.906C39.3177 26.3384 46.1608 33.2923 46.1608 41.8402V43.9397C46.1608 44.5246 45.693 45 45.1173 45ZM2.08683 42.8794H44.0739V41.8402C44.0739 34.4622 38.1665 28.459 30.906 28.459H15.2548C7.99431 28.459 2.08683 34.4622 2.08683 41.8402V42.8794Z" fill="white"/>
</svg>
