<svg width="29" height="20" viewBox="0 0 29 20" fill="none" xmlns="http://www.w3.org/2000/svg">
<path d="M9.93034 10L2.70812 10L2.70812 17.2727L9.93034 17.2727L9.93034 10ZM26.1803 10L18.9581 10L18.9581 17.2727L26.1803 17.2727L26.1803 10ZM7.85395 -1.83891e-06L4.24284 7.27272L12.6387 7.27273L12.6387 20L-0.00021553 20L-0.000214386 6.90909L3.43034 -2.22564e-06L7.85395 -1.83891e-06ZM24.104 -4.18294e-07L20.4928 7.27273L28.8887 7.27273L28.8887 20L16.2498 20L16.2498 6.90909L19.6803 -8.05018e-07L24.104 -4.18294e-07Z" fill="#EF2543"/>
</svg>
