<svg width="18" height="18" viewBox="0 0 18 18" fill="none" xmlns="http://www.w3.org/2000/svg">
<path d="M12.75 16.5H14.25C14.8467 16.5 15.419 16.2629 15.841 15.841C16.2629 15.419 16.5 14.8467 16.5 14.25V3.75C16.5 3.15326 16.2629 2.58097 15.841 2.15901C15.419 1.73705 14.8467 1.5 14.25 1.5H12.75C12.5511 1.5 12.3603 1.42098 12.2197 1.28033C12.079 1.13968 12 0.948912 12 0.75C12 0.551088 12.079 0.360322 12.2197 0.21967C12.3603 0.0790176 12.5511 0 12.75 0L14.25 0C15.2442 0.00119089 16.1973 0.396661 16.9003 1.09966C17.6033 1.80267 17.9988 2.7558 18 3.75V14.25C17.9988 15.2442 17.6033 16.1973 16.9003 16.9003C16.1973 17.6033 15.2442 17.9988 14.25 18H12.75C12.5511 18 12.3603 17.921 12.2197 17.7803C12.079 17.6397 12 17.4489 12 17.25C12 17.0511 12.079 16.8603 12.2197 16.7197C12.3603 16.579 12.5511 16.5 12.75 16.5Z" fill="white"/>
<path d="M0.749709 8.25L12.5825 8.274C12.5167 8.15182 12.4344 8.03926 12.338 7.9395L9.42871 5.03025C9.35708 4.96106 9.29994 4.87831 9.26063 4.7868C9.22133 4.6953 9.20064 4.59689 9.19977 4.4973C9.19891 4.39772 9.21788 4.29896 9.25559 4.20678C9.2933 4.11461 9.34899 4.03087 9.41941 3.96045C9.48983 3.89003 9.57357 3.83434 9.66575 3.79663C9.75792 3.75892 9.85668 3.73995 9.95626 3.74081C10.0558 3.74168 10.1543 3.76237 10.2458 3.80167C10.3373 3.84098 10.42 3.89812 10.4892 3.96975L13.4 6.879C13.9624 7.44158 14.2783 8.20451 14.2783 9C14.2783 9.79549 13.9624 10.5584 13.4 11.121L10.4907 14.0303C10.4215 14.1019 10.3388 14.159 10.2473 14.1983C10.1558 14.2376 10.0573 14.2583 9.95776 14.2592C9.85818 14.2601 9.75942 14.2411 9.66724 14.2034C9.57507 14.1657 9.49133 14.11 9.42091 14.0395C9.35049 13.9691 9.29481 13.8854 9.25709 13.7932C9.21938 13.701 9.20041 13.6023 9.20127 13.5027C9.20214 13.4031 9.22283 13.3047 9.26213 13.2132C9.30144 13.1217 9.35858 13.0389 9.43021 12.9697L12.3395 10.0605C12.4234 9.97406 12.4967 9.87788 12.5577 9.774L0.749709 9.75C0.550797 9.75 0.36003 9.67098 0.219378 9.53033C0.0787258 9.38968 -0.000290871 9.19891 -0.000290871 9C-0.000290871 8.80109 0.0787258 8.61032 0.219378 8.46967C0.36003 8.32902 0.550797 8.25 0.749709 8.25Z" fill="white"/>
</svg>
