<svg width="11" height="12" viewBox="0 0 11 12" fill="none" xmlns="http://www.w3.org/2000/svg">
<path d="M4.46484 1.56799L4.98516 1.04768C5.20547 0.827368 5.56172 0.827368 5.77969 1.04768L10.3359 5.60159C10.5563 5.8219 10.5563 6.17815 10.3359 6.39612L5.77969 10.9524C5.55938 11.1727 5.20313 11.1727 4.98516 10.9524L4.46484 10.4321C4.24219 10.2094 4.24688 9.84612 4.47422 9.62815L7.29844 6.93752H0.5625C0.250781 6.93752 0 6.68674 0 6.37502V5.62502C0 5.31331 0.250781 5.06252 0.5625 5.06252H7.29844L4.47422 2.3719C4.24453 2.15393 4.23984 1.79065 4.46484 1.56799Z" fill="white"/>
</svg>
