<svg width="45" height="45" viewBox="0 0 45 45" fill="none" xmlns="http://www.w3.org/2000/svg">
<path d="M38.2163 29.6698V29.2421V10.13C38.2163 8.28411 36.72 6.78711 34.875 6.78711H15.6488H15.3225H13.5675H13.3538H10.125C8.28 6.78711 6.78375 8.28411 6.78375 10.13V13.563H3.34125C1.49625 13.5743 0 15.0713 0 16.9172V41.657C0 43.503 1.49625 45 3.34125 45H28.08C29.925 45 31.4213 43.503 31.4325 41.657V38.2241H34.875C36.72 38.2241 38.2163 36.7271 38.2163 34.8812V31.7296V29.6698ZM36.4613 34.8699C36.45 35.7478 35.7525 36.4569 34.875 36.4569H31.4325V32.3374C31.4325 31.8534 31.0387 31.4594 30.555 31.4594C30.0712 31.4594 29.6775 31.8534 29.6775 32.3374V41.657C29.6775 42.535 28.9688 43.2441 28.0912 43.2441H3.34125C2.46375 43.2441 1.755 42.535 1.755 41.657V16.9172C1.755 16.0392 2.46375 15.3301 3.34125 15.3301H28.08C28.9575 15.3301 29.6663 16.0392 29.6663 16.9172V23.029C29.6663 23.513 30.06 23.9069 30.5437 23.9069C31.0275 23.9069 31.4212 23.513 31.4212 23.029V16.9172C31.4212 15.0713 29.925 13.5743 28.08 13.5743H8.53875V10.13C8.53875 9.25209 9.2475 8.54299 10.125 8.54299H34.875C35.7525 8.54299 36.4613 9.25209 36.4613 10.13V34.8699Z" fill="white"/>
<path d="M41.6586 0H16.9199C15.0749 0 13.5786 1.497 13.5674 3.34292V6.78714H15.3224V3.34292C15.3224 2.46498 16.0311 1.75588 16.9086 1.75588H41.6474C42.5249 1.75588 43.2336 2.46498 43.2336 3.34292V28.0828C43.2336 28.9607 42.5249 29.6698 41.6474 29.6698H38.2049V31.7071V31.4257H41.6474C43.4924 31.4257 44.9886 29.9287 44.9886 28.0828V3.34292C44.9999 1.497 43.5036 0 41.6586 0Z" fill="#FF8D2D"/>
<path d="M30.5557 26.8223C30.0717 26.8223 29.6777 27.2162 29.6777 27.7002C29.6777 28.1842 30.0717 28.5781 30.5557 28.5781C30.8483 28.5781 31.1072 28.4318 31.276 28.1955C31.5462 27.7902 31.4449 27.2387 31.0509 26.9686C30.8933 26.8785 30.7245 26.8223 30.5557 26.8223Z" fill="#FF8D2D"/>
</svg>
